<svg id="Layer_1" data-name="Layer 1" xmlns="http://www.w3.org/2000/svg" xmlns:xlink="http://www.w3.org/1999/xlink" viewBox="0 0 200 200"><defs><style>.cls-1{fill:url(#linear-gradient);}.cls-2{fill:#fff;}.cls-3{fill:url(#linear-gradient-2);}.cls-4{fill:url(#linear-gradient-3);}.cls-5{fill:#00d0ff;}.cls-6{fill:#231f20;}</style><linearGradient id="linear-gradient" x1="100" y1="180" x2="100" y2="20" gradientUnits="userSpaceOnUse"><stop offset="0.32" stop-color="#fdb000"/><stop offset="0.66" stop-color="#fe6f17"/><stop offset="0.99" stop-color="#ff352b"/></linearGradient><linearGradient id="linear-gradient-2" x1="63.67" y1="176.79" x2="140.1" y2="100.35" gradientUnits="userSpaceOnUse"><stop offset="0" stop-color="#00baff"/><stop offset="0.29" stop-color="#0094ff"/><stop offset="0.58" stop-color="#0074ff"/><stop offset="0.83" stop-color="#0060ff"/><stop offset="1" stop-color="#0059ff"/></linearGradient><linearGradient id="linear-gradient-3" x1="101.26" y1="180" x2="101.26" y2="133.1" gradientUnits="userSpaceOnUse"><stop offset="0" stop-color="#00baff"/><stop offset="0.28" stop-color="#00a9ff"/><stop offset="0.71" stop-color="#0095fe"/><stop offset="0.99" stop-color="#008efe"/></linearGradient></defs><path class="cls-1" d="M180,100A80,80,0,0,1,29.66,138.11h0A80.19,80.19,0,0,1,23,78.1q.93-3.28,2.13-6.45A80.09,80.09,0,0,1,38.48,48.86c1.23-1.48,2.51-2.92,3.85-4.3a80,80,0,0,1,128.92,19c.38.72.73,1.45,1.08,2.18A79.69,79.69,0,0,1,180,100Z"/><path d="M172.63,94.88l-18.75-3.19a2.75,2.75,0,0,0-.79-.33l-.19-6.18a.58.58,0,0,0-1.16,0l-.19,6.18a3.47,3.47,0,0,0-.84.35L132,94.89a.29.29,0,0,0-.23.27.27.27,0,0,0,.29.26l9.77-.76v.79h0a1.48,1.48,0,0,0,.34,2.91,1.47,1.47,0,0,0,.34-2.91h0V94.6l6.7-.52a1.69,1.69,0,0,0,0,.23,3.06,3.06,0,0,0,2.64,3v1h.2l-.21.46h-.18a.18.18,0,0,0-.18.18v.82a.18.18,0,0,0,.18.18h.16a.18.18,0,0,0,.18-.18V99a.43.43,0,0,0,0,0h.54a.07.07,0,0,0,0,0v.82a.18.18,0,0,0,.18.18h.16a.18.18,0,0,0,.18-.18V99a.18.18,0,0,0-.18-.18h-.18l-.21-.46h.2v-1a3.06,3.06,0,0,0,2.64-3c0-.09,0-.17,0-.25l6.69.53v.84h0a1.48,1.48,0,1,0,.68,0h0v-.79l9.78.77a.27.27,0,0,0,.28-.27A.26.26,0,0,0,172.63,94.88Z"/><path class="cls-2" d="M172.33,65.77H152.54l18.38-2.14.33,0C171.63,64.31,172,65,172.33,65.77Z"/><path class="cls-2" d="M84.33,71.65,23,78.1q.93-3.28,2.13-6.45Z"/><path class="cls-2" d="M65.09,46.72,38.48,48.86c1.23-1.48,2.51-2.92,3.85-4.3Z"/><path class="cls-3" d="M172.85,133.1a80,80,0,0,1-143.19,5h0c12.53,3,39.93,9.32,70.92,8.68A228.7,228.7,0,0,0,172.85,133.1Z"/><path class="cls-4" d="M172.85,133.1a80,80,0,0,1-143.19,5,180.59,180.59,0,0,0,47.46,11.37C120.4,153.79,154.94,141.24,172.85,133.1Z"/><path class="cls-5" d="M172.85,133.1a80,80,0,0,1-143.19,5S93.74,192,172.85,133.1Z"/><path class="cls-6" d="M66.93,57.11A2.17,2.17,0,0,1,68,57a2.92,2.92,0,0,1,.49.12.83.83,0,0,1,.25-.13.76.76,0,0,1,.36-.06,2.1,2.1,0,0,0-.31.15,1.79,1.79,0,0,0-.31.28,3.15,3.15,0,0,0-.53-.22A3.37,3.37,0,0,0,66.93,57.11Z"/><path class="cls-6" d="M71,50.47a5.5,5.5,0,0,1,2.77-.18,5.92,5.92,0,0,1,1.24.3,2.58,2.58,0,0,1,.63-.34,2.79,2.79,0,0,1,.92-.15,4.18,4.18,0,0,0-.79.4,4.33,4.33,0,0,0-.78.69,6.1,6.1,0,0,0-1.35-.53A8.28,8.28,0,0,0,71,50.47Z"/><path class="cls-6" d="M83.64,47.17A6.88,6.88,0,0,1,87.08,47a8.3,8.3,0,0,1,1.54.37,3.17,3.17,0,0,1,.77-.41,3.11,3.11,0,0,1,1.15-.19,4.74,4.74,0,0,0-2,1.36,7.75,7.75,0,0,0-1.67-.67A10.45,10.45,0,0,0,83.64,47.17Z"/><path class="cls-6" d="M77.88,55.47a3.17,3.17,0,0,1,1.51-.1,4,4,0,0,1,.67.17,1.37,1.37,0,0,1,.85-.26,1.69,1.69,0,0,0-.43.21,1.88,1.88,0,0,0-.43.38,3.34,3.34,0,0,0-.73-.29A4.86,4.86,0,0,0,77.88,55.47Z"/><path class="cls-2" d="M121.27,167.84a13.48,13.48,0,0,1-6.63.6,16.54,16.54,0,0,1-3-.65,6,6,0,0,1-3.7,1.26,9,9,0,0,0,1.87-1,8.92,8.92,0,0,0,1.84-1.71,15.29,15.29,0,0,0,3.27,1.21A20.14,20.14,0,0,0,121.27,167.84Z"/><path class="cls-2" d="M131.78,150.22a6.2,6.2,0,0,1-2.91.85,7.63,7.63,0,0,1-1.4,0,2.63,2.63,0,0,1-.59.51,2.58,2.58,0,0,1-.95.38,4.22,4.22,0,0,0,1.42-1.54,7.46,7.46,0,0,0,1.57.25A9.15,9.15,0,0,0,131.78,150.22Z"/><path class="cls-2" d="M140,159.6a6.06,6.06,0,0,0,2.74-1.3,7.78,7.78,0,0,0,1-.94,3.35,3.35,0,0,0,.77,0,2.72,2.72,0,0,0,1-.35,4.22,4.22,0,0,1-1,0,3.93,3.93,0,0,1-1.11-.24,7.53,7.53,0,0,1-1,1.23A9.12,9.12,0,0,1,140,159.6Z"/><path class="cls-2" d="M69.11,153.46a6,6,0,0,0,3,.58,8.34,8.34,0,0,0,1.38-.16,3.46,3.46,0,0,0,.64.45,2.9,2.9,0,0,0,1,.29,4.3,4.3,0,0,1-.81-.55,4.13,4.13,0,0,1-.75-.85,7.83,7.83,0,0,1-1.54.4A8.8,8.8,0,0,1,69.11,153.46Z"/><path class="cls-2" d="M77.76,166.56a9.83,9.83,0,0,0,4.8,1.16,12.52,12.52,0,0,0,2.26-.16,4,4,0,0,0,1,.78,4.51,4.51,0,0,0,1.58.55,6.82,6.82,0,0,1-1.27-.95A6.65,6.65,0,0,1,85,166.49a11,11,0,0,1-2.53.54A14.52,14.52,0,0,1,77.76,166.56Z"/><path class="cls-2" d="M100.91,154.15a15.82,15.82,0,0,1-3.4-1.31,9.62,9.62,0,0,1-1.94,1.75,8.11,8.11,0,0,1-.76.46,15.88,15.88,0,0,1-4,1.3,10,10,0,0,0,4.85-1,12.65,12.65,0,0,0,1.82-1,17.76,17.76,0,0,0,3.07.72c3.83.53,7-.36,6.94-.52A20.77,20.77,0,0,1,100.91,154.15Z"/><path d="M125.75,132.63a6.94,6.94,0,0,1-.11.69c-.46-1.18-.8-2.18-1.23-3.15s-.92-1.9-1.43-2.81a8.25,8.25,0,0,0-1.81-2.46c.83,2.43,1,2.9.74,3.55-.15-.26-.28-.46-.4-.68a22.77,22.77,0,0,0-5.71-7,27.09,27.09,0,0,0-2.37-1.43,1.37,1.37,0,0,0-.17.17c.29.85.6,1.69.9,2.54a1.22,1.22,0,0,1-.19.12c-1.43-2-3.16-3.54-5.85-3.37a23.39,23.39,0,0,1,5.4,5c1.7,2.37,2.94,5.64,2.59,6.66l-1-1.23a1.92,1.92,0,0,0-.09.27c0,.16,0,.33.09.49a8.69,8.69,0,0,1-.67,5.73,14,14,0,0,1-7.58,7,4.8,4.8,0,0,1-.77.18c.64-.9,1.28-1.69,1.81-2.55a4.66,4.66,0,0,0,.79-3l-1.24,1.58-.21-.11a15.2,15.2,0,0,0,1.55-6.41,15.53,15.53,0,0,0-1.1-6.5c-.08.56-.17,1.11-.25,1.67h-.19c-.07-.16-.12-.33-.18-.49a27.1,27.1,0,0,0-1-2.64,3.9,3.9,0,0,0-5.48-2,9.86,9.86,0,0,0-3.77,2.89c-1.66,2-3.19,4-4.8,6-1.07,1.3-2.19,2.56-3.31,3.81-1,1.08-2,2.15-3,3.2a2.06,2.06,0,0,1-.66.37,2.64,2.64,0,0,1-.38.77c-2,2.1-3.92,4.16-5.9,6.23-.21.21-.45.4-.67.59-.21-.21-.35-.34-.51-.48.62.9-.14,1.29-.59,1.82-.74.84-1.46,1.68-2.16,2.55-1.2,1.43-2.38,2.89-3.54,4.35-.27.36-.53.41-.8,0-.42-.6-.84-1.19-1.25-1.8-.16-.24-.29-.5-.43-.76a6.1,6.1,0,0,0,1.28,3.28.61.61,0,0,1,0,.85c-.64.8-1.23,1.65-1.9,2.44a.89.89,0,0,0,0,1.36,12.66,12.66,0,0,1,2.35,4.07c1,2.89.57,6.12-3,7.36-.44.15-.38.36-.11.64.73.73,1.44,1.44,2.14,2.18a80.26,80.26,0,0,1-32.73-24.88,6.52,6.52,0,0,1,2.7-1.89,8.85,8.85,0,0,1,8,.82c.51.3.78.27,1.09-.26.77-1.36,1.6-2.68,2.38-4,.22-.38.46-.5.84-.19a3.59,3.59,0,0,0,.63.37l.24-.1c-1.53-.91-.69-1.83-.19-2.74s1-1.85,1.48-2.78,1-1.73,1.42-2.68c1-2.49,2.15-4.93,3-7.5A49.39,49.39,0,0,0,60.37,120a5.36,5.36,0,0,0-3.24-5.82,9.49,9.49,0,0,0-5.13-.62,8.8,8.8,0,0,0-1.13.26l-.12-.19,1.73-1.29a15.34,15.34,0,0,0-9.76,1.36,1.7,1.7,0,0,1-.09-.24l1.79-1.61c-2.36-.78-4.46,0-6.58.81a15.15,15.15,0,0,1,10-5.48,4.23,4.23,0,0,0-1-.64c-.35-.17-.72-.28-1.1-.42,0-.09.09-.17.12-.25,4.63-.12,8.31,2,11.6,5.07a10.74,10.74,0,0,0-4.39-4c-1.76-1-3.63-1.71-5.5-2.58l1.63-.82a11.68,11.68,0,0,0-6.68-1.73,5.2,5.2,0,0,1,2.6-1.46C49.59,99.08,53,100.85,56,104l.26-.13c-.19-.3-.39-.62-.59-.92l.31-.08a13.05,13.05,0,0,1,3.32,3.7A11.39,11.39,0,0,0,53,98.78a1,1,0,0,1,.13-.22L56,99c0-.1.07-.19.1-.27a49.18,49.18,0,0,0-4.81-2.54A50.89,50.89,0,0,0,46,94.66c.3-.65,1.16-.71,1.79-1.16-1.44-1.36-3.26-1.92-5-2.73C47.39,89,51.65,89.69,55.76,92l.14-.21-1.21-1.22a2.21,2.21,0,0,1,1,.19,10,10,0,0,1,3.22,2.58,18.53,18.53,0,0,1,3.66,8.93c.11.61.19,1.23.3,2a36.25,36.25,0,0,1,1.28-3.66,5.63,5.63,0,0,1,2.52-3c-.18.62-.34,1.1-.54,1.76.33-.15.48-.21.62-.29a22.84,22.84,0,0,1,2.34-1.35,4.86,4.86,0,0,1,4.7.32,5.34,5.34,0,0,1,.76.75c-2.32.68-4.61,2.71-4.48,3.81l1.71.56a18,18,0,0,0-2.91,2,18.08,18.08,0,0,0-1.92,2.76,7.25,7.25,0,0,1,8.45-1.72l-1,.52a.76.76,0,0,0,0,.16A10.81,10.81,0,0,1,81,110.15a16,16,0,0,1,4.14,6.3c-.93-.72-1.76-1.52-2.67-2.21s-1.9-1.27-2.86-1.9l-.12.17L81,114.3a2.31,2.31,0,0,1-.16.19c-2.66-1.75-5.34-3.46-8.73-3.18a5.52,5.52,0,0,0,.67.69,8.45,8.45,0,0,1,.62.76c-1-.28-1.81-.6-2.68-.76a2.59,2.59,0,0,0-2.44.7,15.26,15.26,0,0,1,5.33,1.45,9.48,9.48,0,0,1,4,3.64.94.94,0,0,1-.43-.11l-.43-.17a8.32,8.32,0,0,1,1.36,6.37A10.22,10.22,0,0,1,75,129.67c.27-1.47.6-2.9-.15-4.35-.13.4-.24.79-.37,1.19a13.69,13.69,0,0,0-1.21-4.75,9.21,9.21,0,0,0-2.85-3.93c.07.29.13.58.24,1.06l-.54-.46a18.24,18.24,0,0,0-1.53-1.4,3,3,0,0,0-4.51.71,9.26,9.26,0,0,0-1.38,2.8c-.54,1.89-.83,3.84-1.33,5.74-.82,3.08-1.72,6.15-2.62,9.22-.69,2.32-1.48,4.6-2.13,6.94S55.57,147,55,149.22c-.17.7-.3.78-.94.41s-1-.58-1.53-.89a1,1,0,0,1-.13.18,11.06,11.06,0,0,0,1.47,1.22c.64.35.92.74.67,1.43-.17.49.06.61.51.68.93.15,1.84.4,2.77.55a1.62,1.62,0,0,0,1-.14q5.69-3.61,11.35-7.26c.65-.41.63-.41,1,.27.26.48.56.93.84,1.38l.16-.1c-.21-.59-.43-1.17-.65-1.76a.7.7,0,0,1,.34-.94c1.72-1.17,3.4-2.39,5.09-3.59.68-.48,1.35-1,2-1.47l.46.49c-.28-.66.09-1,.51-1.35,2.17-1.86,4.3-3.76,6.45-5.63a5.9,5.9,0,0,1,.91-.5c-.08-.34-.08-.4.55-1a62.79,62.79,0,0,0,6.37-7.72c1.81-2.51,2.33-5.2.76-8a10.72,10.72,0,0,0-6.23-4.84c-.6-.2-1.25-.31-2-.5a7,7,0,0,1,2.95-.68,18.07,18.07,0,0,0-5.87-3.12,18.5,18.5,0,0,0-6.53-1,6.78,6.78,0,0,1,3.34-1,5.39,5.39,0,0,0-.5-.6,6.51,6.51,0,0,0-3.05-1.59c-1.48-.3-3-.41-4.53-.61-.14,0-.28-.06-.42-.09a19.69,19.69,0,0,1,15.25-.62c0-.09.06-.18.1-.26l-2.09-2.37L85.5,98c2.91.83,4.94,2.88,6.8,5.14a24.43,24.43,0,0,1,4.22,7.66c-.84-5.55-4.15-9.66-8-13.46l.07-.16h2.49a15.28,15.28,0,0,0-7-5.89c.25-.13.3-.18.35-.18a11.43,11.43,0,0,1,10.5,3.66,15.25,15.25,0,0,1,3.56,6.51c0,.16.13.31.19.47l.16,0c.06-.49.12-1,.16-1.46h.19a14.12,14.12,0,0,1,1.78,6.56,12,12,0,0,0,.15-6.86,14.82,14.82,0,0,0-3.19-6.29c1.7.35,2.67,1.6,3.94,2.37a38,38,0,0,0-4.14-6.17,23.86,23.86,0,0,0-5.61-4.74l.11-.3,3-.17a21,21,0,0,0-4.41-6,16.16,16.16,0,0,1,8.33,2.68,24,24,0,0,1,6.4,6.28,4.07,4.07,0,0,0-.26-1.37c-.15-.43-.36-.84-.61-1.44a4.34,4.34,0,0,1,.57.4,12.89,12.89,0,0,1,2.86,5.26c1.17,4.53.48,9-.86,13.34-.11.36-.25.71-.35,1.08s-.19.66-.28,1l.17.07a15.91,15.91,0,0,1,3.77-4,8.38,8.38,0,0,1,3.64-1.77,4.3,4.3,0,0,1,.62,0,.94.94,0,0,0,0,.16,8.33,8.33,0,0,0-.85.7,5.43,5.43,0,0,0-.63.93c.54-.09,1-.16,1.48-.21,2.67-.37,5.17-.13,7.21,1.88a4.69,4.69,0,0,1,1.38,2.54c-3-1.07-5.37.18-7.84,1.75.93.47,1.68.92,1.92,2a9.51,9.51,0,0,0-4.48.3c-1.57.6-3.47,1.71-3.84,2.37,4.42-1.78,8-.58,11.17,2.68l-2-.07v.17a10.64,10.64,0,0,1,4.4,4.29A22,22,0,0,1,125.75,132.63Z"/><path class="cls-2" d="M112.86,46.32c-.14,3.23-5.93,7.89-6.3,7.85-.56-.08-1.22-2.32-.66-2.5,1.22-.41,4.54-3.61,5.5-6.15-3.74-.39-11.41,5.67-11.56,10.31,1.78,1,5.52,1.85,6,2.17,2.22,1.52,2.1,3.06,2,3.32,0,.08,0,.15,0,.22-.25,1-5.06,5.65-8.46,4.4a3.84,3.84,0,0,1-2-1.37,1.6,1.6,0,0,1-.31-.93c0-.63.9-1.39,1-.92a9.52,9.52,0,0,0,.12,1.44c2.88.78,7.45-2.4,8.38-4.3-1.78-1-4.91-1.57-5.89-2.08a3.16,3.16,0,0,1-1.66-2A6.86,6.86,0,0,1,98.5,54c-.47-4.56,9-11.89,12.7-11,.39.1.86.81,1.2,1.52A3.57,3.57,0,0,1,112.86,46.32Z"/><path class="cls-2" d="M122.29,51.45c-.05,1.32-5.06,9.73-6.37,9.63a1.9,1.9,0,0,1-1-.46,1.6,1.6,0,0,1-.73-1,4.46,4.46,0,0,1,.24-2.22c-1.71,2.61-3.37,5.08-3.64,5.11a.48.48,0,0,1-.27,0,2.47,2.47,0,0,1-1.32-1.93c-.31-2.78,3.67-10.38,5.13-10.65a4.6,4.6,0,0,1,3,.68,14.2,14.2,0,0,1,1.18-2c.48-.08,1.51.83,1.41,1.17-.27,1.1-3.93,6.77-4.32,9.7,2.2-1.74,5.81-8,5.91-8.82C121.56,50.14,122.36,50.57,122.29,51.45Zm-11.21,8.43c1.61-2,4.15-6,5.76-8.55C114.18,51.7,112,56.44,111.08,59.88Z"/><path class="cls-2" d="M125.61,53.16a10.29,10.29,0,0,1-3.39,1.35,4.18,4.18,0,0,1,.37.56c1.31,2.44-1.13,11.9-3.52,11.9a1.33,1.33,0,0,1-.83-.3A3.18,3.18,0,0,1,117,64.45c-1-5.81,8-21.16,8-21.57.13-.88,1.84.34,1.89,1.29,0,.32-2.5,4.45-4.79,9.19,1.39-.46,4.08-1.64,4.3-3.08C126.52,49.4,127.81,51.45,125.61,53.16Zm-4.22,1.71c-1.76,3.89-3.2,8-2.88,10.68C120.68,63.84,122.29,57.63,121.39,54.87Z"/><path class="cls-2" d="M136.36,51.45c-.05,1.32-5.05,9.73-6.37,9.63a1.93,1.93,0,0,1-1-.46,1.6,1.6,0,0,1-.73-1,4.46,4.46,0,0,1,.24-2.22c-1.71,2.61-3.37,5.08-3.64,5.11a.48.48,0,0,1-.27,0,2.47,2.47,0,0,1-1.32-1.93c-.31-2.78,3.67-10.38,5.13-10.65a4.6,4.6,0,0,1,3,.68,14.2,14.2,0,0,1,1.18-2c.48-.08,1.51.83,1.41,1.17-.26,1.1-3.93,6.77-4.32,9.7,2.2-1.74,5.81-8,5.91-8.82C135.63,50.14,136.44,50.57,136.36,51.45Zm-11.21,8.43c1.61-2,4.15-6,5.77-8.55C128.25,51.7,126.05,56.44,125.15,59.88Z"/><path class="cls-2" d="M143.91,51.58c-.58,1.22-6.59,10.77-7.79,11-.27,0-.51-.18-.71-.42a2.5,2.5,0,0,1-.73-1.51c-.3-1.67,2-6.67,3.83-9.78-1.32.52-2.64.93-3.25.69-1.9-.76-1.8-2.54-1.46-2.05,1,1.39,5.69-1.27,6.55-1.32a1.75,1.75,0,0,1,1.41.83c.27.29.39.58.17.75-1.32,1-4.66,7-5.62,10.7,2.37-2.59,7.16-10.18,7.38-10A1.06,1.06,0,0,1,143.91,51.58Z"/><path class="cls-2" d="M147.92,51.58c-.08,1.32-5.28,10.65-6.6,10.55a1.72,1.72,0,0,1-1.27-.76,2.64,2.64,0,0,1-.71-1.37c-.58-2.78,3.45-9.67,3.42-10.08s1.54.34,1.66,1.27c0,.29-3.27,6-3.61,9.4,2.2-1.66,6.2-9,6.33-9.87C147.19,50.26,148,50.7,147.92,51.58Zm-4.47-2.84a24.31,24.31,0,0,0,2.1-5.47c0-.32,1.34-.12,1.59.9.24,1.2-2.08,5.62-2.52,5.77C144.35,50,143.25,49,143.45,48.74Z"/><path class="cls-2" d="M131.38,70c-.1.17-.78.59-.71-.27,0-.12.05-.34.07-.56-1.27-.64-4.25-.29-7.42.34a1,1,0,0,1,.07.37c0,.9-8.26,14-7.43,17.95.2.88-1.9-.19-1.83-2.1.08-3.49,4.84-12.24,6.74-15.71-4,.91-7.79,1.93-8.45,1.69-1.22-.44-1-2.52-.63-2,.83,1.1,15.56-3.86,18.39-2.61a2.67,2.67,0,0,1,1.27,2.39A1,1,0,0,1,131.38,70Z"/><path class="cls-2" d="M128.23,77.5c-1.2,3.37-3.91,8-5.6,8.33a1.83,1.83,0,0,1-1.1-.42,3.72,3.72,0,0,1-1.66-2.13c-.39-2.19,1.27-5.49,2.67-7.35a2.45,2.45,0,0,1,.09-1.15,5.14,5.14,0,0,1,3.6-2.71c1.31-.19,2.07,1.32,2.22,1.81a1.71,1.71,0,0,1,.29.61,3.14,3.14,0,0,1,0,1.22c1.36-1,2.44-1.93,2.54-1.95s.76.46.8.68A17.13,17.13,0,0,1,128.23,77.5Zm-2.44,1.14a2.26,2.26,0,0,1-1.81-.09,3.48,3.48,0,0,1-.59-.49c-1.22,1.85-2.27,4.69-1.9,6.42C122.85,83.87,124.59,81.26,125.79,78.64Zm-1.18-3.86c.54.47,1,1.4.69,1.44a3.28,3.28,0,0,0-1.64,1.45,4.66,4.66,0,0,0,2.76-.59,9.54,9.54,0,0,0,.76-3.54A6,6,0,0,0,124.61,74.78Z"/><path class="cls-2" d="M140.61,74.78c-.07,1.32-5.08,9.73-6.4,9.63a2.3,2.3,0,0,1-1.78-1.49c-.24-.83.19-2.44.85-4.11a54.25,54.25,0,0,0-3.88,6.72c-.1.27-.44.25-.73.1a2.44,2.44,0,0,1-1.47-2c-.39-3,4.35-10.92,4.42-11.29.08-.54,1.69.32,1.88,1s-3.54,6-4.47,9.87a112.67,112.67,0,0,1,7-9.85c.07-.07.1-.12.12-.12.49-.1,1.52.81,1.44,1.15-.29,1.1-3.39,5.71-3.68,8.4,2.17-1.71,5.81-8,5.93-8.84C139.88,73.46,140.66,73.9,140.61,74.78Z"/><path class="cls-2" d="M148.19,74.93c-.59,1.22-6.6,10.77-7.8,11-.27,0-.51-.17-.7-.42A2.45,2.45,0,0,1,139,84c-.29-1.66,2-6.67,3.84-9.77-1.32.51-2.64.93-3.25.68-1.91-.76-1.81-2.54-1.47-2,1,1.39,5.7-1.27,6.55-1.32a1.81,1.81,0,0,1,1.42.83c.27.29.39.59.17.76-1.32,1-4.67,7-5.62,10.7,2.37-2.59,7.16-10.19,7.38-10A1.08,1.08,0,0,1,148.19,74.93Z"/></svg>